<svg width="300" height="211" viewBox="0 0 348 241" fill="none" xmlns="http://www.w3.org/2000/svg">
<g clip-path="url(#clip0_18_31)">
<path d="M127.678 231.332C113.777 224.79 102.367 210.986 102.043 195.342C115.21 205.748 131.553 211.056 148.18 210.328C154.591 210.023 161.691 209.002 166.839 212.92C170.043 215.358 171.83 219.357 172.473 223.387C173.116 227.417 172.739 231.536 172.361 235.601L172.734 236.546C157.521 238.252 141.58 237.875 127.678 231.332Z" fill="#F0F0F0"/>
<path d="M102.36 195.291C108.812 206.436 118.535 215.219 130.148 220.392C132.628 221.551 135.272 222.303 137.982 222.621C140.631 222.843 143.29 222.335 145.683 221.151C147.935 220.093 150.119 218.743 152.584 218.263C153.85 218.037 155.148 218.086 156.393 218.408C157.638 218.731 158.803 219.318 159.81 220.133C162.372 222.096 164.092 224.884 165.681 227.669C167.445 230.762 169.229 234.004 172.208 236.043C172.569 236.29 172.173 236.848 171.813 236.601C166.629 233.054 165.147 226.333 160.845 221.96C158.837 219.919 156.216 218.485 153.315 218.844C150.779 219.159 148.526 220.548 146.254 221.64C143.937 222.83 141.369 223.422 138.777 223.364C136.06 223.189 133.392 222.542 130.888 221.452C125.211 219.089 119.933 215.828 115.247 211.789C109.874 207.209 105.306 201.724 101.742 195.57C101.522 195.189 102.141 194.913 102.36 195.291L102.36 195.291Z" fill="white"/>
<path d="M126.313 218.952C125.199 220.826 123.471 222.234 121.435 222.926C119.4 223.617 117.191 223.546 115.202 222.726C114.8 222.558 115.035 221.912 115.438 222.08C117.289 222.847 119.347 222.913 121.241 222.265C123.135 221.617 124.74 220.299 125.766 218.547C125.99 218.167 126.535 218.573 126.313 218.952V218.952Z" fill="white"/>
<path d="M144.61 221.841C143.608 217.477 141.033 213.66 137.401 211.15C137.041 210.902 137.437 210.343 137.796 210.592C141.572 213.21 144.243 217.189 145.276 221.732C145.374 222.165 144.707 222.272 144.61 221.841V221.841Z" fill="white"/>
<path d="M110.672 206.797C111.251 206.164 111.667 205.394 111.882 204.555C112.097 203.717 112.106 202.837 111.906 201.995C111.803 201.563 112.47 201.457 112.572 201.886C112.788 202.818 112.778 203.789 112.542 204.716C112.306 205.643 111.852 206.496 111.219 207.202C111.164 207.274 111.086 207.321 110.998 207.336C110.911 207.35 110.821 207.33 110.748 207.279C110.676 207.225 110.627 207.144 110.613 207.054C110.599 206.964 110.62 206.872 110.672 206.797V206.797Z" fill="white"/>
<path d="M141.263 160.722C141.335 160.99 141.407 161.257 141.484 161.527C142.472 165.12 143.744 168.626 145.287 172.008C145.402 172.272 145.523 172.537 145.645 172.797C149.448 180.906 154.69 188.223 161.105 194.375C163.66 196.821 166.393 199.065 169.281 201.087C173.269 203.879 177.811 206.582 180.582 210.444C180.876 210.844 181.145 211.261 181.388 211.695L173.833 236.008C173.788 236.054 173.749 236.103 173.705 236.149L173.447 237.134C173.291 237.041 173.131 236.94 172.975 236.846C172.884 236.792 172.795 236.733 172.704 236.679C172.644 236.641 172.584 236.603 172.528 236.573C172.508 236.561 172.488 236.548 172.474 236.537C172.417 236.507 172.368 236.472 172.317 236.443C171.422 235.884 170.529 235.317 169.639 234.743C169.633 234.741 169.633 234.741 169.629 234.734C162.854 230.34 156.377 225.329 150.851 219.472C150.685 219.296 150.513 219.118 150.35 218.931C147.873 216.277 145.613 213.42 143.591 210.39C142.489 208.727 141.471 207.008 140.539 205.239C138.14 200.665 136.459 195.734 135.559 190.626C133.766 180.443 135.178 169.787 140.825 161.362C140.97 161.146 141.113 160.936 141.263 160.722Z" fill="#F0F0F0"/>
<path d="M141.548 160.875C140.137 173.746 142.728 186.744 148.954 198.023C150.252 200.475 151.92 202.703 153.897 204.624C155.882 206.432 158.304 207.664 160.911 208.191C163.333 208.733 165.871 209 168.122 210.134C169.266 210.732 170.273 211.571 171.077 212.595C171.882 213.618 172.466 214.805 172.791 216.075C173.68 219.22 173.412 222.504 173.04 225.707C172.627 229.262 172.143 232.948 173.321 236.41C173.464 236.83 172.819 237.032 172.677 236.613C170.627 230.59 173.401 224.311 172.541 218.171C172.139 215.306 170.891 212.547 168.364 211.048C166.154 209.738 163.536 209.46 161.079 208.933C158.528 208.457 156.13 207.349 154.094 205.707C152.028 203.895 150.279 201.736 148.921 199.324C145.78 193.943 143.486 188.09 142.123 181.98C140.529 175.016 140.113 167.825 140.891 160.717C140.939 160.277 141.596 160.438 141.548 160.875H141.548Z" fill="white"/>
<path d="M146.74 194.511C144.748 195.323 142.538 195.383 140.506 194.682C138.474 193.981 136.751 192.564 135.646 190.685C135.424 190.304 135.993 189.933 136.215 190.314C137.241 192.067 138.846 193.386 140.739 194.035C142.633 194.684 144.691 194.619 146.542 193.852C146.945 193.686 147.141 194.346 146.74 194.511V194.511Z" fill="white"/>
<path d="M159.648 208.082C161.417 203.981 161.61 199.348 160.187 195.108C160.046 194.688 160.691 194.486 160.832 194.905C162.305 199.321 162.094 204.141 160.244 208.405C160.067 208.811 159.472 208.486 159.648 208.082Z" fill="white"/>
<path d="M141.409 175.179C142.244 175.029 143.03 174.67 143.695 174.133C144.361 173.597 144.886 172.899 145.223 172.104C145.394 171.696 145.989 172.021 145.819 172.427C145.442 173.304 144.862 174.073 144.128 174.668C143.394 175.263 142.528 175.664 141.607 175.838C141.522 175.862 141.431 175.852 141.352 175.809C141.274 175.767 141.215 175.696 141.186 175.61C141.16 175.522 141.169 175.428 141.211 175.347C141.253 175.267 141.324 175.206 141.409 175.179Z" fill="white"/>
<path d="M322.027 230.168C320.603 233.189 318.724 235.961 316.458 238.385C315.95 238.927 315.426 239.452 314.889 239.959C314.517 240.314 314.136 240.659 313.747 241H287.406C287.427 240.65 287.466 240.305 287.517 239.959C287.685 238.841 288.067 237.768 288.642 236.802C290.832 233.199 295.335 232.093 299.261 230.724C300.198 230.396 301.126 230.037 302.037 229.644C303.213 229.141 304.368 228.586 305.493 227.982C310.526 225.284 315.026 221.654 318.764 217.277C318.884 217.137 318.999 216.997 319.115 216.853C320.649 215.016 322.035 213.055 323.259 210.989C323.353 210.84 323.438 210.687 323.528 210.534C323.584 210.692 323.639 210.854 323.695 211.011C325.791 217.26 324.867 224.147 322.027 230.168Z" fill="#F0F0F0"/>
<path d="M323.763 210.596C323.742 210.736 323.721 210.875 323.695 211.011C323.191 214.031 322.352 216.983 321.193 219.809C320.661 221.111 320.063 222.384 319.401 223.622C318.118 226.032 316.598 228.302 314.863 230.396C314.769 230.51 314.671 230.623 314.577 230.737C313.833 231.607 313.053 232.435 312.237 233.221C310.984 234.482 309.531 235.517 307.939 236.282C306.646 236.848 305.248 237.122 303.842 237.086C303.577 237.086 303.312 237.073 303.042 237.056C301.965 236.986 300.861 236.837 299.775 236.868C299.226 236.875 298.681 236.948 298.15 237.086C297.423 237.306 296.747 237.674 296.162 238.167C295.578 238.661 295.097 239.271 294.749 239.959C294.599 240.227 294.463 240.503 294.343 240.786C294.313 240.856 294.283 240.93 294.258 241H293.787C293.92 240.644 294.074 240.296 294.249 239.959C294.339 239.78 294.437 239.605 294.54 239.435C294.958 238.701 295.522 238.066 296.197 237.571C296.871 237.076 297.64 236.732 298.453 236.562C298.947 236.469 299.448 236.423 299.95 236.426C301.058 236.409 302.17 236.566 303.273 236.627C303.389 236.632 303.504 236.64 303.62 236.64C303.765 236.645 303.915 236.645 304.06 236.645C305.511 236.646 306.943 236.303 308.243 235.643C309.798 234.795 311.213 233.703 312.438 232.407C313.101 231.738 313.738 231.039 314.346 230.317C314.376 230.287 314.402 230.256 314.427 230.225C317.033 227.123 319.151 223.625 320.705 219.857C320.765 219.722 320.821 219.586 320.876 219.451C321.973 216.728 322.772 213.891 323.259 210.989C323.284 210.854 323.306 210.714 323.327 210.578C323.37 210.298 323.806 210.316 323.763 210.596Z" fill="white"/>
<path d="M314.409 230.61C315.513 231.467 316.878 231.895 318.262 231.818C319.647 231.74 320.959 231.162 321.964 230.187C322.167 229.989 321.876 229.657 321.673 229.856C320.738 230.766 319.515 231.304 318.226 231.373C316.938 231.443 315.667 231.039 314.643 230.234C314.421 230.06 314.187 230.436 314.409 230.61V230.61Z" fill="white"/>
<path d="M304.077 236.781C303.668 233.914 304.331 230.995 305.934 228.605C306.093 228.369 305.725 228.129 305.566 228.365C303.903 230.855 303.219 233.894 303.651 236.876C303.692 237.161 304.118 237.063 304.077 236.781V236.781Z" fill="white"/>
<path d="M320.996 219.512C320.501 219.272 320.073 218.909 319.749 218.457C319.425 218.005 319.216 217.478 319.141 216.924C319.103 216.639 318.678 216.737 318.715 217.019C318.801 217.632 319.033 218.214 319.39 218.714C319.746 219.214 320.217 219.617 320.761 219.888C320.811 219.918 320.869 219.927 320.925 219.915C320.981 219.902 321.03 219.868 321.062 219.82C321.093 219.77 321.104 219.71 321.091 219.652C321.079 219.594 321.045 219.544 320.996 219.512V219.512Z" fill="white"/>
<path d="M302.679 225.813C302.525 227.107 302.311 228.38 302.037 229.644V229.648C301.523 231.96 300.825 234.226 299.95 236.422V236.426C299.895 236.579 299.835 236.723 299.775 236.868C299.351 237.913 298.894 238.94 298.406 239.959C298.239 240.309 298.068 240.655 297.893 241H280.73L279.9 239.959L279.61 239.592C279.656 239.272 279.721 238.955 279.806 238.643C280.576 235.648 282.68 232.923 284.434 230.278C285.701 228.362 286.823 226.351 287.791 224.261C290.225 219.009 291.682 213.34 292.089 207.543C292.102 207.355 292.111 207.167 292.119 206.979C292.263 204.571 292.215 202.155 291.978 199.755V199.747C291.961 199.572 291.944 199.392 291.923 199.217C292.059 199.314 292.196 199.401 292.329 199.493C292.329 199.493 292.33 199.493 292.33 199.493C292.331 199.493 292.331 199.494 292.332 199.494C292.332 199.495 292.333 199.495 292.333 199.496C292.333 199.496 292.333 199.497 292.333 199.497H292.337C297.671 203.188 300.989 209.236 302.277 215.777C302.281 215.791 302.281 215.804 302.285 215.817C302.926 219.107 303.059 222.48 302.679 225.813V225.813Z" fill="#F0F0F0"/>
<path d="M296.7 220.417C296.691 220.566 296.683 220.71 296.67 220.859C296.588 222.009 296.456 223.154 296.268 224.287C296.008 226.066 295.456 227.787 294.634 229.377C293.935 230.625 292.981 231.703 291.837 232.539C291.623 232.705 291.405 232.862 291.183 233.011C289.827 233.92 288.317 234.725 287.291 236.046C286.463 237.165 286.081 238.563 286.222 239.959C286.244 240.309 286.289 240.657 286.358 241H285.918C285.862 240.717 285.82 240.431 285.794 240.143C285.789 240.082 285.785 240.02 285.781 239.959C285.707 239.145 285.798 238.323 286.046 237.546C286.295 236.768 286.697 236.051 287.227 235.438C288.317 234.209 289.78 233.435 291.11 232.521C291.208 232.455 291.302 232.385 291.397 232.316C291.516 232.232 291.636 232.141 291.752 232.049C292.914 231.161 293.856 230.006 294.501 228.677C295.244 227.044 295.731 225.301 295.943 223.513C296.075 222.568 296.175 221.621 296.242 220.671C296.242 220.627 296.246 220.588 296.246 220.544V220.539C296.499 216.46 296.134 212.366 295.164 208.4C295.126 208.256 295.087 208.116 295.053 207.972C294.328 205.125 293.297 202.37 291.978 199.755V199.747C291.914 199.624 291.854 199.502 291.79 199.379C291.657 199.13 292.017 198.872 292.145 199.126C292.209 199.248 292.269 199.37 292.329 199.493C292.329 199.493 292.33 199.493 292.33 199.493C292.331 199.493 292.331 199.494 292.332 199.494C292.332 199.495 292.333 199.495 292.333 199.496C292.333 199.496 292.333 199.497 292.333 199.497C293.722 202.237 294.795 205.132 295.532 208.125C295.87 209.471 296.137 210.834 296.332 212.209C296.728 214.925 296.852 217.675 296.7 220.417V220.417Z" fill="white"/>
<path d="M296.462 220.864C297.848 220.869 299.19 220.37 300.25 219.456C301.309 218.542 302.017 217.273 302.245 215.875C302.291 215.592 301.863 215.507 301.817 215.79C301.607 217.092 300.948 218.274 299.959 219.123C298.971 219.972 297.719 220.432 296.428 220.419C296.147 220.417 296.183 220.861 296.462 220.864V220.864Z" fill="white"/>
<path d="M291.846 232.151C289.831 230.114 288.642 227.375 288.514 224.481C288.502 224.194 288.067 224.229 288.08 224.515C288.218 227.526 289.461 230.374 291.562 232.489C291.763 232.691 292.045 232.351 291.846 232.151V232.151Z" fill="white"/>
<path d="M295.187 207.948C294.65 208.06 294.094 208.034 293.57 207.873C293.045 207.712 292.568 207.419 292.181 207.023C291.983 206.819 291.701 207.159 291.897 207.361C292.327 207.798 292.854 208.119 293.433 208.299C294.013 208.479 294.626 208.511 295.22 208.392C295.277 208.386 295.329 208.357 295.367 208.313C295.404 208.268 295.423 208.211 295.421 208.153C295.416 208.094 295.389 208.039 295.345 208.001C295.301 207.963 295.244 207.943 295.187 207.948Z" fill="white"/>
<path d="M1.78532 51.4066C2.2 35.7653 10.1243 19.6092 24.0632 13.1511C19.886 29.622 21.5416 47.0728 28.7369 62.4158C31.5328 68.3227 35.2441 74.595 33.7458 80.976C32.8136 84.9464 29.9208 88.2001 26.5499 90.3894C23.1788 92.5787 19.3273 93.8446 15.5234 95.0882L14.82 95.8105C7.30222 82.1817 1.37065 67.0479 1.78532 51.4066Z" fill="#F0F0F0"/>
<path d="M24.2339 13.4291C16.7506 23.8787 12.6778 36.4735 12.594 49.4245C12.5275 52.2122 12.8913 54.9932 13.6718 57.6652C14.5144 60.2428 16.0167 62.5428 18.0226 64.326C19.8603 66.0272 21.9328 67.5497 23.334 69.6779C24.0355 70.7782 24.5015 72.0177 24.7016 73.3151C24.9017 74.6124 24.8313 75.9384 24.495 77.206C23.7375 80.3868 21.9074 83.0995 20.0275 85.6888C17.9403 88.5637 15.7277 91.516 15.0662 95.1187C14.986 95.5552 14.3283 95.4025 14.4083 94.9667C15.5593 88.6986 21.0193 84.6619 23.2592 78.8971C24.3044 76.2072 24.563 73.1789 23.0991 70.5937C21.8189 68.3332 19.6831 66.7613 17.8078 65.0553C15.826 63.3451 14.2839 61.1646 13.3163 58.7045C12.4052 56.0818 11.9373 53.3198 11.9326 50.5366C11.8242 44.2709 12.6801 38.0268 14.4687 32.033C16.473 25.1807 19.609 18.7294 23.7409 12.9583C23.9968 12.6012 24.4882 13.0744 24.2339 13.4291H24.2339Z" fill="white"/>
<path d="M12.3809 45.2527C10.2577 44.9433 8.31107 43.8723 6.88881 42.231C5.46655 40.5897 4.66121 38.4848 4.61664 36.2924C4.60911 35.8488 5.28302 35.816 5.29056 36.2602C5.32838 38.3019 6.07874 40.2624 7.40621 41.7881C8.73367 43.3137 10.5508 44.3039 12.5296 44.58C12.9596 44.6405 12.8084 45.3128 12.3809 45.2527V45.2527Z" fill="white"/>
<path d="M16.9797 63.589C20.5096 60.9303 22.9297 57.009 23.7575 52.6069C23.8392 52.1707 24.497 52.3233 24.4154 52.759C23.5456 57.3382 21.019 61.4137 17.3398 64.1721C16.9889 64.4348 16.6308 63.8502 16.9797 63.589Z" fill="white"/>
<path d="M17.1575 25.7692C17.9546 26.0639 18.8109 26.1516 19.6494 26.0243C20.4878 25.8971 21.2823 25.5589 21.9613 25.0402C22.3088 24.7731 22.6666 25.358 22.3214 25.6233C21.5685 26.1929 20.6907 26.5653 19.7646 26.708C18.8385 26.8506 17.8924 26.7593 17.0088 26.4418C16.923 26.4191 16.849 26.3637 16.8017 26.2871C16.7544 26.2106 16.7374 26.1184 16.7542 26.0295C16.7743 25.9405 16.828 25.8633 16.9035 25.8145C16.979 25.7658 17.0703 25.7495 17.1575 25.7692L17.1575 25.7692Z" fill="white"/>
<path d="M70.6211 36.4009C70.4088 36.574 70.1965 36.7471 69.9845 36.926C67.142 39.268 64.4904 41.8424 62.0557 44.6235C61.864 44.8355 61.673 45.0533 61.4878 45.2704C55.6919 52.0348 51.1746 59.8406 48.1656 68.291C46.9713 71.6548 46.029 75.1066 45.3469 78.6165C44.4051 83.4639 43.7612 88.7963 41.3783 92.9211C41.1345 93.3543 40.8646 93.7717 40.5702 94.1707L15.7365 96.6318C15.6773 96.6085 15.6184 96.5909 15.5589 96.5676L14.5718 96.7122C14.5946 96.5286 14.6221 96.3388 14.6449 96.1552C14.6577 96.0487 14.6761 95.9417 14.6889 95.8352C14.6992 95.764 14.7097 95.6927 14.715 95.6279C14.7184 95.6042 14.722 95.5804 14.7259 95.5625C14.7312 95.4977 14.7428 95.438 14.7487 95.379C14.8996 94.3173 15.0561 93.2551 15.2243 92.1917C15.2237 92.1859 15.2237 92.1859 15.2287 92.1795C16.5144 84.0819 18.4726 76.0228 21.5649 68.5239C21.658 68.2983 21.7503 68.0669 21.8547 67.8402C23.2669 64.468 24.9463 61.2193 26.8762 58.1268C27.9382 56.4369 29.0833 54.8031 30.3069 53.2316C33.4762 49.1773 37.2495 45.6579 41.4885 42.8024C49.9396 37.1114 60.0767 34.2473 69.8741 36.241C70.1247 36.2922 70.37 36.3439 70.6211 36.4009Z" fill="#F0F0F0"/>
<path d="M70.5959 36.7287C58.4677 40.4654 47.7994 48.0145 40.1063 58.3035C38.4117 60.4885 37.0645 62.9329 36.1143 65.5467C35.2692 68.1236 35.1144 70.8848 35.666 73.5434C36.1316 76.0329 36.8898 78.5243 36.7554 81.0862C36.6676 82.3965 36.3098 83.6731 35.7057 84.8321C35.1015 85.9912 34.2645 87.0066 33.2495 87.8117C30.7717 89.885 27.7131 90.9244 24.6874 91.8346C21.328 92.8451 17.8229 93.8404 15.1733 96.3097C14.8522 96.6089 14.417 96.082 14.7375 95.7833C19.3475 91.4871 26.084 91.6252 31.267 88.4012C33.6855 86.8968 35.6752 84.6381 36.0285 81.6728C36.3375 79.0798 35.5578 76.51 35.0651 73.9935C34.4898 71.4079 34.5425 68.7177 35.2185 66.1578C36.0354 63.5029 37.2882 61.0095 38.9233 58.7844C42.5263 53.7149 46.8865 49.2561 51.8441 45.5715C57.4794 41.3341 63.782 38.1136 70.4795 36.0493C70.894 35.9217 71.0078 36.6019 70.5959 36.7287L70.5959 36.7287Z" fill="white"/>
<path d="M42.3927 54.8414C40.8796 53.2874 39.956 51.234 39.7869 49.0479C39.6178 46.8619 40.2142 44.6855 41.4696 42.9076C41.7248 42.5487 42.2821 42.9374 42.0266 43.2967C40.8546 44.9501 40.2992 46.9774 40.4608 49.0128C40.6223 51.0481 41.4901 52.9573 42.9075 54.3959C43.2152 54.7089 42.6986 55.1526 42.3927 54.8414V54.8414Z" fill="white"/>
<path d="M35.2673 72.3129C39.6513 72.3631 43.8927 70.7219 47.1457 67.7167C47.4678 67.4187 47.9032 67.9454 47.5815 68.2431C44.1906 71.3639 39.7734 73.0626 35.2114 73.0002C34.7766 72.9939 34.8349 72.3067 35.2673 72.3129H35.2673Z" fill="white"/>
<path d="M57.6793 42.2254C58.1422 42.9514 58.7743 43.5485 59.5187 43.9631C60.2631 44.3776 61.0966 44.5967 61.9442 44.6005C62.3789 44.6011 62.3201 45.2884 61.8883 45.2878C60.9518 45.2791 60.0316 45.036 59.2082 44.5799C58.3847 44.1237 57.6831 43.4683 57.1645 42.6709C57.1095 42.5999 57.0829 42.5102 57.0903 42.4199C57.0976 42.3297 57.1383 42.2456 57.204 42.185C57.2725 42.1263 57.3608 42.0977 57.4498 42.1052C57.5388 42.1128 57.6213 42.156 57.6793 42.2254V42.2254Z" fill="white"/>
<path d="M247.025 240.138H176.027C172.058 240.133 168.254 238.519 165.448 235.65C162.642 232.781 161.064 228.892 161.059 224.834V112.886C161.064 108.829 162.642 104.939 165.448 102.07C168.254 99.201 172.058 97.5872 176.027 97.5826H247.025C250.993 97.5872 254.798 99.201 257.604 102.07C260.41 104.939 261.988 108.829 261.992 112.886V224.834C261.988 228.892 260.41 232.781 257.604 235.65C254.798 238.519 250.993 240.133 247.025 240.138V240.138Z" fill="white"/>
<path d="M239.327 229.021H183.725C179.813 229.016 176.063 227.425 173.298 224.597C170.532 221.769 168.976 217.935 168.972 213.936V123.784C168.976 119.785 170.532 115.951 173.298 113.123C176.063 110.295 179.813 108.704 183.725 108.7H239.327C243.238 108.704 246.988 110.295 249.754 113.123C252.52 115.951 254.076 119.785 254.08 123.784V213.936C254.076 217.935 252.52 221.769 249.754 224.597C246.988 227.425 243.238 229.016 239.327 229.021V229.021Z" fill="#FFC244"/>
<path d="M261.767 196.209H161.689V219.823H261.767V196.209Z" fill="#00A082"/>
<path d="M19.8032 139.527L2.85678 117.249C1.76258 115.811 0.956174 114.166 0.483616 112.41C0.0110583 110.653 -0.118393 108.818 0.102647 107.01C0.323687 105.202 0.890894 103.456 1.77188 101.872C2.65286 100.288 3.83036 98.897 5.23714 97.7784L73.8761 43.1936C77.8927 39.9938 82.7423 38.0747 87.8193 37.676L93.6084 37.2176L143.456 7.36482C143.019 6.39026 142.947 5.28536 143.255 4.2603C143.562 3.23524 144.228 2.36152 145.124 1.80532C146.021 1.24912 147.086 1.04924 148.117 1.24371C149.149 1.43817 150.074 2.01341 150.718 2.86001L164.896 21.4993C165.542 22.3475 165.859 23.4092 165.788 24.4815C165.716 25.5538 165.261 26.5616 164.509 27.3124C163.757 28.0631 162.76 28.5043 161.71 28.5514C160.66 28.5986 159.629 28.2486 158.816 27.5682L118.039 69.26C117.171 76.2006 113.641 82.5042 108.228 86.7849L38.8463 141.96C37.4397 143.079 35.8313 143.904 34.113 144.387C32.3947 144.87 30.6001 145.002 28.8317 144.776C27.0634 144.55 25.3559 143.97 23.8068 143.07C22.2576 142.169 20.8972 140.965 19.8032 139.527V139.527Z" fill="white"/>
<path d="M247.025 240.138H176.027C172.058 240.133 168.254 238.519 165.448 235.65C162.642 232.781 161.064 228.892 161.059 224.834V112.886C161.064 108.829 162.642 104.939 165.448 102.07C168.254 99.201 172.058 97.5872 176.027 97.5826H247.025C250.993 97.5872 254.798 99.201 257.604 102.07C260.41 104.939 261.988 108.829 261.992 112.886V224.834C261.988 228.892 260.41 232.781 257.604 235.65C254.798 238.519 250.993 240.133 247.025 240.138V240.138ZM176.027 98.4572C172.285 98.4615 168.698 99.983 166.053 102.688C163.407 105.393 161.919 109.06 161.915 112.886V224.834C161.919 228.66 163.407 232.327 166.053 235.032C168.698 237.737 172.285 239.259 176.027 239.263H247.025C250.767 239.259 254.354 237.737 256.999 235.032C259.645 232.327 261.133 228.66 261.137 224.834V112.886C261.133 109.06 259.645 105.393 256.999 102.688C254.354 99.983 250.767 98.4615 247.025 98.4572H176.027Z" fill="#3F3D56"/>
<path d="M163.303 5.33053C167.147 3.72442 171.314 3.09364 175.449 3.49209C179.583 3.89054 183.561 5.30637 187.044 7.61862C194.207 12.3208 199.544 20.7924 201.327 30.2904C202.201 34.9452 202.517 40.3593 205.701 43.257C208.034 45.3794 211.21 45.4346 214.017 46.4607C222.319 49.4952 226.604 61.2748 225.395 71.5046C224.186 81.7343 218.802 90.5446 213.025 98.2575C214.862 94.1129 212.477 88.7377 208.988 86.5627C205.499 84.3877 201.341 84.5705 197.413 84.9304C193.486 85.2903 189.393 85.7464 185.731 84.0212C179.473 81.0733 176.305 72.5312 175.832 64.5449C175.36 56.5586 176.921 48.5996 177.033 40.5947C177.145 32.5897 175.407 23.8204 169.999 19.0534C167.512 16.861 164.435 15.6916 162.122 13.2451C159.808 10.7986 158.567 6.15465 160.728 3.51908" fill="#FFC244"/>
<path d="M250.219 93.8847C249.995 93.8847 249.773 93.8928 249.553 93.9056C250.317 91.7055 250.427 89.3229 249.867 87.0591C249.308 84.7953 248.105 82.7519 246.41 81.187C244.715 79.6222 242.604 78.6062 240.345 78.2674C238.085 77.9286 235.778 78.2822 233.715 79.2835C231.865 73.9566 227.886 70.2712 223.275 70.2712C218.664 70.2712 214.686 73.9566 212.835 79.2835C211.286 78.5322 209.593 78.1424 207.879 78.1424C206.164 78.1424 204.471 78.5322 202.922 79.2835C201.072 73.9566 197.093 70.2712 192.482 70.2712C187.871 70.2712 183.893 73.9566 182.042 79.2835C179.978 78.2819 177.671 77.9283 175.411 78.2676C173.151 78.6068 171.04 79.6237 169.345 81.1895C167.65 82.7554 166.447 84.8 165.889 87.0647C165.33 89.3294 165.441 91.7126 166.207 93.9129C165.986 93.8956 165.763 93.8846 165.538 93.8846C159.161 93.8846 153.991 100.933 153.991 109.627C153.991 118.321 159.161 125.369 165.538 125.369C170.791 125.369 175.221 120.587 176.622 114.043C178.308 115.765 180.474 116.912 182.822 117.326C185.171 117.74 187.587 117.402 189.74 116.357C191.591 121.684 195.57 125.369 200.18 125.369C205.433 125.369 209.863 120.587 211.264 114.043C212.95 115.765 215.116 116.912 217.465 117.326C219.813 117.74 222.229 117.402 224.382 116.357C226.233 121.684 230.212 125.369 234.823 125.369C239.434 125.369 243.412 121.684 245.263 116.357C246.828 117.117 248.539 117.507 250.272 117.499C252.004 117.491 253.712 117.085 255.27 116.31C256.828 115.535 258.195 114.412 259.271 113.024C260.346 111.635 261.103 110.017 261.484 108.289C261.865 106.562 261.861 104.768 261.472 103.042C261.083 101.316 260.32 99.7018 259.238 98.3185C258.156 96.9351 256.784 95.8183 255.223 95.0508C253.662 94.2833 251.952 93.8847 250.219 93.8846V93.8847Z" fill="#F0F0F0"/>
<path d="M188.633 127.556C189.814 127.556 190.772 126.577 190.772 125.369C190.772 124.162 189.814 123.183 188.633 123.183C187.452 123.183 186.495 124.162 186.495 125.369C186.495 126.577 187.452 127.556 188.633 127.556Z" fill="white"/>
<path d="M201.891 164.725C203.072 164.725 204.03 163.746 204.03 162.538C204.03 161.331 203.072 160.352 201.891 160.352C200.71 160.352 199.753 161.331 199.753 162.538C199.753 163.746 200.71 164.725 201.891 164.725Z" fill="white"/>
<path d="M215.577 139.362C216.758 139.362 217.715 138.383 217.715 137.176C217.715 135.968 216.758 134.989 215.577 134.989C214.396 134.989 213.439 135.968 213.439 137.176C213.439 138.383 214.396 139.362 215.577 139.362Z" fill="white"/>
<path d="M200.181 147.233C201.362 147.233 202.319 146.255 202.319 145.047C202.319 143.84 201.362 142.861 200.181 142.861C199 142.861 198.042 143.84 198.042 145.047C198.042 146.255 199 147.233 200.181 147.233Z" fill="white"/>
<path d="M227.124 170.847C228.305 170.847 229.263 169.868 229.263 168.66C229.263 167.453 228.305 166.474 227.124 166.474C225.943 166.474 224.986 167.453 224.986 168.66C224.986 169.868 225.943 170.847 227.124 170.847Z" fill="white"/>
<path d="M234.823 127.556C236.004 127.556 236.961 126.577 236.961 125.369C236.961 124.162 236.004 123.183 234.823 123.183C233.642 123.183 232.684 124.162 232.684 125.369C232.684 126.577 233.642 127.556 234.823 127.556Z" fill="white"/>
<path d="M261.565 204.518V203.643C272.144 203.643 282.291 199.346 289.772 191.697C297.253 184.048 301.455 173.674 301.455 162.857C301.455 152.04 297.253 141.666 289.772 134.017C282.291 126.368 272.144 122.071 261.565 122.071V121.196C272.371 121.196 282.735 125.585 290.376 133.398C298.018 141.211 302.311 151.808 302.311 162.857C302.311 173.906 298.018 184.503 290.376 192.316C282.735 200.129 272.371 204.518 261.565 204.518V204.518Z" fill="#3F3D56"/>
<path d="M261.767 196.647H261.339V195.544H262.194V195.769C270.264 195.654 277.961 192.281 283.607 186.385C289.253 180.49 292.39 172.551 292.334 164.3C292.277 156.049 289.032 148.155 283.306 142.341C277.579 136.527 269.837 133.264 261.767 133.264V132.39C270.101 132.39 278.093 135.775 283.986 141.8C289.879 147.825 293.189 155.997 293.189 164.518C293.189 173.039 289.879 181.211 283.986 187.237C278.093 193.262 270.101 196.647 261.767 196.647V196.647Z" fill="#3F3D56"/>
<path d="M23.3832 134.173L8.81326 115.019C7.88489 113.799 7.2007 112.404 6.79977 110.913C6.39883 109.423 6.28899 107.866 6.47654 106.332C6.66408 104.798 7.14533 103.317 7.8928 101.973C8.64027 100.629 9.63932 99.4488 10.8329 98.4998L69.8464 51.5696C73.276 48.8374 77.4168 47.1988 81.7518 46.8583L86.7644 46.4614L132.969 18.7905L145.39 35.1196L107.576 73.7831C107.215 76.7272 106.288 79.5693 104.849 82.1463C103.41 84.7232 101.488 86.9843 99.1921 88.7996L39.5401 136.238C38.3466 137.187 36.982 137.886 35.5241 138.296C34.0663 138.706 32.5437 138.819 31.0433 138.627C29.543 138.435 28.0943 137.943 26.78 137.179C25.4656 136.415 24.3114 135.393 23.3832 134.173V134.173Z" fill="#FFC244"/>
<path d="M160.761 22.0287C162.179 22.4355 163.999 22.0273 165.526 20.8136C167.763 19.0343 168.519 16.2012 167.214 14.4854C166.976 14.1745 166.681 13.9139 166.346 13.7182C166.513 13.1922 166.557 12.6332 166.473 12.0868C166.389 11.5403 166.18 11.0219 165.863 10.5735C165.694 10.3524 165.496 10.1567 165.273 9.99193C166.745 7.90928 167.297 6.04762 166.538 5.05072C166.318 4.80542 166.047 4.61421 165.744 4.49144C165.442 4.36867 165.116 4.31751 164.791 4.3418C164.898 3.49111 164.677 2.63128 164.175 1.94416C163.073 0.495388 160.855 0.311776 158.844 1.35954C158.819 1.32489 158.8 1.28771 158.774 1.25384C157.469 -0.461908 154.597 -0.410353 152.36 1.3689C151.24 2.22304 150.449 3.45215 150.125 4.8417C148.728 4.82063 147.368 5.30184 146.283 6.20133C144.046 7.98058 143.29 10.8137 144.595 12.5295C144.653 12.6053 144.717 12.6733 144.781 12.7422L144.754 12.7704C144.704 12.6888 144.654 12.6068 144.595 12.5295C143.29 10.8137 140.418 10.8653 138.181 12.6446C137.061 13.4987 136.27 14.7278 135.946 16.1174C134.549 16.0963 133.189 16.5775 132.104 17.477C129.867 19.2562 129.111 22.0894 130.416 23.8051C131.721 25.5209 134.593 25.4693 136.83 23.6901C136.311 24.1018 135.904 24.6429 135.647 25.2615C135.391 25.8801 135.293 26.5557 135.365 27.2236C135.437 27.8916 135.674 28.5296 136.056 29.0768C136.437 29.6239 136.95 30.0619 137.544 30.349C137.071 31.5122 137.025 32.4926 137.506 33.1248C138.264 34.1217 140.164 34.0331 142.501 33.0874C142.602 33.3482 142.739 33.5931 142.907 33.8151C144.212 35.5309 147.084 35.4793 149.321 33.7C150.441 32.8459 151.232 31.6169 151.556 30.2274C152.953 30.2483 154.313 29.767 155.398 28.8676C155.913 28.4592 156.367 27.9754 156.744 27.4316C157.352 27.1918 157.922 26.8615 158.436 26.4514C159.962 25.2377 160.798 23.5341 160.761 22.0287Z" fill="#F0F0F0"/>
<path d="M19.8032 139.527L2.85678 117.249C1.76258 115.811 0.956174 114.166 0.483616 112.41C0.0110583 110.653 -0.118393 108.818 0.102647 107.01C0.323687 105.202 0.890894 103.456 1.77188 101.872C2.65286 100.288 3.83036 98.897 5.23714 97.7784L73.8761 43.1936C77.8927 39.9938 82.7423 38.0747 87.8193 37.676L93.6084 37.2176L143.456 7.36482C143.019 6.39026 142.947 5.28536 143.255 4.2603C143.562 3.23524 144.228 2.36152 145.124 1.80532C146.021 1.24912 147.086 1.04924 148.117 1.24371C149.149 1.43817 150.074 2.01341 150.718 2.86001L164.896 21.4993C165.542 22.3475 165.859 23.4092 165.788 24.4815C165.716 25.5538 165.261 26.5616 164.509 27.3124C163.757 28.0631 162.76 28.5043 161.71 28.5514C160.66 28.5986 159.629 28.2486 158.816 27.5682L118.039 69.26C117.171 76.2006 113.641 82.5042 108.228 86.7849L38.8463 141.96C37.4397 143.079 35.8313 143.904 34.113 144.387C32.3947 144.87 30.6001 145.002 28.8317 144.776C27.0634 144.55 25.3559 143.97 23.8068 143.07C22.2576 142.169 20.8972 140.965 19.8032 139.527V139.527ZM150.042 3.39694C149.51 2.69574 148.736 2.22807 147.878 2.08884C147.02 1.94961 146.143 2.14925 145.424 2.64725C144.705 3.14525 144.198 3.9043 144.007 4.77034C143.815 5.63638 143.953 6.54454 144.392 7.31049L144.609 7.688L93.8709 38.074L87.8854 38.5478C82.9756 38.9335 78.2857 40.7894 74.4012 43.8839L5.76228 98.4688C4.44416 99.5169 3.34086 100.82 2.5154 102.304C1.68995 103.788 1.15849 105.424 0.95138 107.118C0.744272 108.812 0.865574 110.532 1.30835 112.178C1.75113 113.824 2.50672 115.365 3.53196 116.712L20.4784 138.99C21.5034 140.337 22.7781 141.465 24.2296 142.309C25.6811 143.153 27.2809 143.697 28.9378 143.909C30.5947 144.12 32.2762 143.996 33.8862 143.544C35.4962 143.091 37.0032 142.318 38.3212 141.27L107.703 86.0945C110.314 84.0297 112.499 81.4559 114.131 78.522C115.762 75.588 116.809 72.3524 117.209 69.0022L117.228 68.8533L158.801 26.3461L159.103 26.656C159.719 27.2855 160.546 27.6515 161.416 27.6793C162.286 27.7071 163.134 27.3946 163.786 26.8055C164.439 26.2165 164.847 25.3952 164.928 24.509C165.009 23.6228 164.756 22.7385 164.221 22.0362L150.042 3.39694Z" fill="#3F3D56"/>
<path d="M58.7615 55.7675L34.455 75.0972L67.539 118.589L91.8456 99.2591L58.7615 55.7675Z" fill="#3F3D56"/>
<path d="M35.0551 75.1738L67.6141 117.975L91.2455 99.1824L58.6865 56.3811L35.0551 75.1738Z" fill="#00A082"/>
<path d="M130.079 36.2317C131.26 36.2317 132.217 35.2528 132.217 34.0453C132.217 32.8377 131.26 31.8588 130.079 31.8588C128.898 31.8588 127.94 32.8377 127.94 34.0453C127.94 35.2528 128.898 36.2317 130.079 36.2317Z" fill="white"/>
<path d="M113.199 39.6834C114.38 39.6834 115.337 38.7045 115.337 37.497C115.337 36.2895 114.38 35.3106 113.199 35.3106C112.018 35.3106 111.061 36.2895 111.061 37.497C111.061 38.7045 112.018 39.6834 113.199 39.6834Z" fill="white"/>
<path d="M114.212 53.8355C115.393 53.8355 116.35 52.8566 116.35 51.649C116.35 50.4415 115.393 49.4626 114.212 49.4626C113.031 49.4626 112.073 50.4415 112.073 51.649C112.073 52.8566 113.031 53.8355 114.212 53.8355Z" fill="white"/>
<path d="M97.3323 57.2873C98.5133 57.2873 99.4707 56.3084 99.4707 55.1008C99.4707 53.8933 98.5133 52.9144 97.3323 52.9144C96.1512 52.9144 95.1938 53.8933 95.1938 55.1008C95.1938 56.3084 96.1512 57.2873 97.3323 57.2873Z" fill="white"/>
<path d="M185.212 31.3529C186.393 31.3529 187.35 30.374 187.35 29.1664C187.35 27.9589 186.393 26.98 185.212 26.98C184.031 26.98 183.073 27.9589 183.073 29.1664C183.073 30.374 184.031 31.3529 185.212 31.3529Z" fill="white"/>
<path d="M192.91 43.1596C194.091 43.1596 195.048 42.1807 195.048 40.9731C195.048 39.7656 194.091 38.7867 192.91 38.7867C191.729 38.7867 190.771 39.7656 190.771 40.9731C190.771 42.1807 191.729 43.1596 192.91 43.1596Z" fill="white"/>
<path d="M192.91 62.8374C194.091 62.8374 195.048 61.8585 195.048 60.651C195.048 59.4434 194.091 58.4645 192.91 58.4645C191.729 58.4645 190.771 59.4434 190.771 60.651C190.771 61.8585 191.729 62.8374 192.91 62.8374Z" fill="white"/>
<path d="M161.729 75.8727C159.363 75.9485 151.787 76.4559 147.85 79.8363C143.148 83.8747 143.148 87.7098 145.427 90.4838C147.705 93.2578 151.4 93.9201 156.102 89.8817C160.089 86.4585 161.882 78.7657 162.336 76.5006L161.729 75.8727Z" fill="#F2F2F2"/>
<path d="M222.534 27.2461C224.039 29.1138 229.065 34.9332 234.088 36.0507C240.089 37.3856 243.057 35.0407 243.81 31.5009C244.563 27.9611 242.817 24.5672 236.816 23.2321C231.729 22.1003 224.68 25.3538 222.649 26.3716L222.534 27.2461Z" fill="#F2F2F2"/>
<path d="M261.007 84.5317C261.285 86.935 262.434 94.6091 266.068 98.3268C270.409 102.768 274.145 102.437 276.652 99.8766C279.158 97.3158 279.484 93.4953 275.143 89.0537C271.463 85.2888 263.813 84.1266 261.567 83.8597L261.007 84.5317Z" fill="#F2F2F2"/>
<path d="M348 240.48C348 240.548 347.986 240.616 347.96 240.679C347.934 240.743 347.897 240.8 347.849 240.848C347.801 240.897 347.745 240.935 347.683 240.961C347.62 240.987 347.554 241 347.487 241H70.6528C70.5178 241 70.3884 240.945 70.2929 240.848C70.1975 240.75 70.1439 240.618 70.1439 240.48C70.1439 240.342 70.1975 240.209 70.2929 240.112C70.3884 240.014 70.5178 239.959 70.6528 239.959H347.487C347.554 239.959 347.62 239.972 347.683 239.998C347.745 240.024 347.801 240.062 347.849 240.111C347.897 240.159 347.934 240.217 347.96 240.28C347.986 240.343 348 240.411 348 240.48V240.48Z" fill="#3F3D56"/>
</g>
<defs>
<clipPath id="clip0_18_31">
<rect width="348" height="241" fill="white"/>
</clipPath>
</defs>
</svg>
