<svg width="241" height="283" viewBox="0 0 241 283" fill="none" xmlns="http://www.w3.org/2000/svg">
<g clip-path="url(#clip0_8_29)">
<path d="M60.6143 78.7205C75.3132 78.7205 87.229 66.9506 87.229 52.4316C87.229 37.9127 75.3132 26.1427 60.6143 26.1427C45.9153 26.1427 33.9995 37.9127 33.9995 52.4316C33.9995 66.9506 45.9153 78.7205 60.6143 78.7205Z" fill="#3F3D56"/>
<path d="M213.299 87.4835C227.998 87.4835 239.914 75.7136 239.914 61.1946C239.914 46.6757 227.998 34.9057 213.299 34.9057C198.6 34.9057 186.684 46.6757 186.684 61.1946C186.684 75.7136 198.6 87.4835 213.299 87.4835Z" fill="#3F3D56"/>
<path d="M213.766 33.9833C208.654 33.9834 203.65 35.4378 199.352 38.1727C195.055 40.9076 191.646 44.8072 189.533 49.4053C194.089 45.3966 199.902 43.0562 205.996 42.7761C212.091 42.4961 218.099 44.2934 223.012 47.867C227.925 51.4406 231.446 56.5733 232.984 62.4054C234.523 68.2375 233.985 74.4147 231.462 79.9021C235.492 76.3591 238.337 71.6897 239.619 66.5132C240.901 61.3366 240.559 55.8975 238.64 50.917C236.721 45.9365 233.314 41.6499 228.872 38.6257C224.429 35.6014 219.161 33.9824 213.766 33.9833V33.9833Z" fill="#00A082"/>
<path d="M60.1473 25.2203C65.2595 25.2204 70.2635 26.6748 74.5609 29.4097C78.8583 32.1446 82.2673 36.0443 84.3803 40.6423C79.8242 36.6336 74.0118 34.2932 67.9169 34.0132C61.822 33.7331 55.8147 35.5304 50.9015 39.104C45.9883 42.6776 42.4676 47.8104 40.9292 53.6425C39.3908 59.4746 39.9282 65.6517 42.4513 71.1391C38.4211 67.5961 35.5765 62.9267 34.2946 57.7502C33.0127 52.5737 33.354 47.1345 35.2734 42.154C37.1928 37.1735 40.5995 32.8869 45.0418 29.8627C49.4841 26.8385 54.7521 25.2195 60.1473 25.2203V25.2203Z" fill="#00A082"/>
<path d="M137.657 183.415C137.668 196.84 133.647 209.966 126.103 221.133C118.559 232.3 107.831 241.005 95.2769 246.148C82.7224 251.29 68.9056 252.639 55.575 250.022C42.2444 247.406 29.9991 240.943 20.3887 231.45C10.7782 221.957 4.23459 209.862 1.58579 196.694C-1.063 183.527 0.302096 169.879 5.50836 157.479C10.7146 145.078 19.528 134.481 30.8333 127.029C42.1386 119.578 55.4277 115.606 69.0189 115.617C78.0412 115.587 86.9803 117.32 95.3217 120.717C103.663 124.113 111.242 129.106 117.622 135.408C124.001 141.709 129.056 149.195 132.494 157.434C135.933 165.673 137.688 174.503 137.657 183.415Z" fill="#3F3D56"/>
<path d="M137.657 183.415C137.67 193.12 135.566 202.714 131.489 211.544C119.736 211.389 108.157 208.718 97.5504 203.716C86.9434 198.714 77.5604 191.5 70.0482 182.571C62.5361 173.642 57.0733 163.21 54.0364 151.995C50.9995 140.779 50.4606 129.046 52.4571 117.605C62.5728 115.132 73.1257 114.964 83.3168 117.115C93.5078 119.266 103.07 123.679 111.279 130.02C119.488 136.361 126.129 144.463 130.699 153.714C135.269 162.965 137.649 173.121 137.657 183.415V183.415Z" fill="#00A082"/>
<path d="M132.521 201.402C177.391 201.402 213.766 165.473 213.766 121.152C213.766 76.8307 177.391 40.9014 132.521 40.9014C87.6504 40.9014 51.2757 76.8307 51.2757 121.152C51.2757 165.473 87.6504 201.402 132.521 201.402Z" fill="#3F3D56"/>
<path d="M152.264 123.897C156.472 118.316 162.749 114.611 169.717 113.594C176.686 112.576 183.779 114.329 189.441 118.469C192.588 114.296 194.411 109.294 194.678 104.098C194.945 98.9015 193.646 93.7435 190.943 89.2772C188.241 84.8108 184.258 81.2369 179.498 79.008C174.738 76.7792 169.415 75.9955 164.204 76.7564C158.993 77.5173 154.128 79.7884 150.225 83.2822C146.321 86.7761 143.555 91.3355 142.277 96.3831C140.998 101.431 141.265 106.739 143.043 111.637C144.821 116.535 148.03 120.802 152.264 123.897V123.897Z" fill="white"/>
<path d="M90.1633 128.97C94.3712 123.39 100.647 119.685 107.616 118.667C114.585 117.65 121.678 119.403 127.34 123.542C130.487 119.369 132.309 114.368 132.577 109.171C132.844 103.975 131.544 98.8169 128.842 94.3505C126.14 89.8841 122.157 86.3102 117.397 84.0813C112.637 81.8525 107.314 81.0688 102.103 81.8297C96.8922 82.5906 92.0269 84.8617 88.1234 88.3555C84.2199 91.8494 81.4538 96.4088 80.1753 101.456C78.8969 106.504 79.1635 111.813 80.9415 116.711C82.7195 121.608 85.9289 125.875 90.1633 128.97V128.97Z" fill="white"/>
<path d="M107.774 112.389C113.189 112.389 117.579 108.052 117.579 102.703C117.579 97.3543 113.189 93.018 107.774 93.018C102.358 93.018 97.9684 97.3543 97.9684 102.703C97.9684 108.052 102.358 112.389 107.774 112.389Z" fill="#3F3D56"/>
<path d="M171.276 105.009C176.691 105.009 181.081 100.673 181.081 95.3241C181.081 89.975 176.691 85.6387 171.276 85.6387C165.86 85.6387 161.47 89.975 161.47 95.3241C161.47 100.673 165.86 105.009 171.276 105.009Z" fill="#3F3D56"/>
<path d="M138.591 128.992C141.428 128.992 143.727 126.721 143.727 123.919C143.727 121.117 141.428 118.846 138.591 118.846C135.754 118.846 133.455 121.117 133.455 123.919C133.455 126.721 135.754 128.992 138.591 128.992Z" fill="#00A082"/>
<path d="M61.5481 267.526V245.217H54.0773V267.526C51.8926 268.289 50.0011 269.703 48.6632 271.572C47.3253 273.441 46.6067 275.674 46.6065 277.963V277.963H69.0189V277.963C69.0187 275.674 68.3001 273.441 66.9622 271.572C65.6243 269.703 63.7329 268.289 61.5481 267.526V267.526Z" fill="#3F3D56"/>
<path d="M89.0968 267.526V245.217H81.6259V267.526C79.4412 268.289 77.5497 269.703 76.2118 271.572C74.8739 273.441 74.1554 275.674 74.1551 277.963V277.963H96.5676V277.963C96.5673 275.674 95.8488 273.441 94.5109 271.572C93.173 269.703 91.2815 268.289 89.0968 267.526V267.526Z" fill="#3F3D56"/>
<path d="M99.3048 48.5975C95.9197 43.2142 93.6459 36.8905 94.3504 30.5916C95.055 24.2928 99.2323 18.1464 105.382 16.3413C111.532 14.5362 119.151 18.2759 120.31 24.5088C126.469 13.9892 136.213 5.97365 147.802 1.89271C153.177 0.0218832 160.32 -0.402361 163.428 4.31603C164.966 6.65126 165.13 9.82628 167.191 11.7288C170.421 14.7112 175.601 12.6106 180.015 12.8655C186.222 13.224 191.219 18.9462 192.001 25.0393C192.783 31.1324 190.051 37.2556 186.018 41.9306C181.986 46.6055 176.74 50.0737 171.565 53.4798" fill="#3F3D56"/>
<path d="M147.522 142.495C147.856 142.146 148.202 141.808 148.562 141.485C148.722 141.342 148.884 141.202 149.049 141.065C149.151 140.98 149.255 140.895 149.36 140.812C149.541 140.668 149.598 140.633 149.378 140.794C150.172 140.207 151.008 139.679 151.88 139.212C152.282 138.999 152.69 138.8 153.105 138.614C153.203 138.571 153.302 138.529 153.4 138.486C152.959 138.679 153.305 138.526 153.418 138.481C153.667 138.382 153.918 138.288 154.171 138.199C155.109 137.868 156.07 137.601 157.046 137.401C157.495 137.309 157.947 137.237 158.401 137.166C158.706 137.118 158.017 137.208 158.324 137.176C158.458 137.163 158.592 137.145 158.727 137.131C158.995 137.103 159.265 137.081 159.534 137.062C160.505 136.997 161.48 136.993 162.451 137.052C162.936 137.081 163.419 137.13 163.902 137.187C163.415 137.13 163.973 137.2 164.144 137.227C164.41 137.27 164.675 137.318 164.939 137.371C165.889 137.56 166.823 137.813 167.738 138.128C167.965 138.207 168.192 138.289 168.417 138.376C168.542 138.424 168.666 138.474 168.79 138.523C168.727 138.498 168.381 138.344 168.732 138.501C169.171 138.698 169.606 138.901 170.033 139.125C170.906 139.591 171.744 140.118 172.54 140.703C172.782 140.879 172.267 140.48 172.497 140.672C172.599 140.758 172.706 140.84 172.81 140.925C172.975 141.062 173.139 141.202 173.299 141.345C173.71 141.71 174.104 142.094 174.483 142.492C174.829 142.855 175.162 143.23 175.482 143.616C175.478 143.611 175.842 144.057 175.648 143.817C175.486 143.615 175.716 143.905 175.752 143.953C175.946 144.209 176.133 144.468 176.315 144.732C176.909 145.594 177.445 146.493 177.921 147.423C178.147 147.863 178.36 148.31 178.561 148.762C178.605 148.861 178.758 149.228 178.592 148.829C178.637 148.937 178.682 149.045 178.726 149.153C178.836 149.425 178.942 149.698 179.044 149.973C179.78 151.99 180.344 154.064 180.731 156.174C180.832 156.709 180.925 157.247 181.01 157.786C181.048 158.026 181.084 158.267 181.119 158.507C181.118 158.501 181.199 159.095 181.157 158.775C181.119 158.49 181.184 158.99 181.19 159.043C181.332 160.167 181.444 161.293 181.535 162.422C181.712 164.635 181.807 166.854 181.876 169.073C182.049 174.702 182.196 180.332 182.356 185.961L183.335 220.443L184.314 254.925L184.436 259.206C184.436 259.756 184.657 260.284 185.051 260.673C185.445 261.062 185.98 261.281 186.537 261.281C187.094 261.281 187.629 261.062 188.023 260.673C188.417 260.284 188.638 259.756 188.638 259.206L187.632 223.773L186.633 188.577L186.13 170.861C185.995 166.117 185.801 161.378 185.062 156.682C183.701 148.033 179.746 139.042 171.292 135.114C163.395 131.446 153.623 132.297 146.704 137.631C145.938 138.219 145.219 138.864 144.551 139.56C144.157 139.949 143.935 140.477 143.935 141.027C143.935 141.578 144.157 142.106 144.551 142.495C144.945 142.884 145.479 143.103 146.036 143.103C146.594 143.103 147.128 142.884 147.522 142.495L147.522 142.495Z" fill="#00A082"/>
<path d="M163.338 207.859C162.719 207.86 162.126 208.103 161.688 208.535C161.25 208.968 161.004 209.554 161.003 210.165L165.672 280.239C165.669 280.544 165.728 280.846 165.844 281.129C165.96 281.412 166.131 281.669 166.348 281.886C166.565 282.103 166.823 282.276 167.108 282.394C167.393 282.512 167.698 282.574 168.007 282.575H206.295C206.914 282.574 207.508 282.331 207.945 281.899C208.383 281.466 208.629 280.88 208.63 280.269L213.3 210.135C213.293 209.528 213.043 208.949 212.606 208.523C212.169 208.097 211.579 207.858 210.964 207.859H163.338Z" fill="#E6E6E6"/>
<path d="M167.034 211.318C166.714 211.318 166.398 211.383 166.105 211.509C165.812 211.635 165.548 211.818 165.329 212.049C165.111 212.28 164.943 212.552 164.835 212.85C164.728 213.147 164.684 213.463 164.705 213.778L168.998 276.964C169.039 277.547 169.302 278.093 169.734 278.492C170.166 278.891 170.736 279.114 171.327 279.116H202.975C203.567 279.114 204.136 278.891 204.568 278.492C205 278.093 205.263 277.547 205.304 276.964L209.597 213.778C209.619 213.463 209.574 213.147 209.467 212.85C209.36 212.552 209.191 212.28 208.973 212.049C208.755 211.818 208.491 211.635 208.197 211.509C207.904 211.383 207.588 211.318 207.268 211.318H167.034Z" fill="#00A082"/>
<path d="M181.081 222.156C180.834 222.157 180.596 222.254 180.421 222.427C180.246 222.6 180.148 222.834 180.147 223.079V228.152C180.148 228.397 180.246 228.631 180.421 228.804C180.596 228.977 180.834 229.074 181.081 229.075H189.019C189.267 229.074 189.504 228.977 189.679 228.804C189.854 228.631 189.952 228.397 189.953 228.152V223.079C189.952 222.834 189.854 222.6 189.679 222.427C189.504 222.254 189.267 222.157 189.019 222.156H181.081Z" fill="#E6E6E6"/>
<path d="M189.953 235.532C189.705 235.532 189.468 235.629 189.293 235.802C189.118 235.975 189.019 236.209 189.019 236.454V241.527C189.019 241.772 189.118 242.006 189.293 242.179C189.468 242.352 189.705 242.449 189.953 242.45H197.891C198.138 242.449 198.375 242.352 198.55 242.179C198.726 242.006 198.824 241.772 198.824 241.527V236.454C198.824 236.209 198.726 235.975 198.55 235.802C198.375 235.629 198.138 235.532 197.891 235.532H189.953Z" fill="#E6E6E6"/>
<path d="M181.548 246.601C181.301 246.601 181.063 246.698 180.888 246.871C180.713 247.044 180.615 247.278 180.614 247.523V252.596C180.615 252.841 180.713 253.075 180.888 253.248C181.063 253.421 181.301 253.518 181.548 253.519H189.486C189.733 253.518 189.971 253.421 190.146 253.248C190.321 253.075 190.419 252.841 190.42 252.596V247.523C190.419 247.278 190.321 247.044 190.146 246.871C189.971 246.698 189.733 246.601 189.486 246.601H181.548Z" fill="#E6E6E6"/>
<path d="M30.7446 219.924C33.1743 220.72 34.8854 222.762 36.3091 224.763C37.7767 226.826 39.1219 229.067 41.1276 230.678C41.9699 231.402 42.9582 231.94 44.0271 232.257C45.0959 232.574 46.2209 232.664 47.3273 232.519C49.5265 232.192 51.3907 230.673 51.7252 228.434C52.1657 225.484 50.0758 222.754 48.2425 220.656L47.7472 221.837C50.6683 222.148 53.2079 223.793 55.8827 224.851C58.4454 225.866 61.4768 226.419 64.037 225.097C66.0014 224.082 67.2263 222.052 67.6413 219.948C68.0659 217.652 67.7108 215.282 66.631 213.206C65.2682 210.453 63.0333 208.229 60.8655 206.087L60.1841 207.243C63.407 207.721 67.0005 208.167 69.797 206.121C70.9155 205.343 71.7131 204.193 72.044 202.881C72.3291 201.432 72.0865 199.93 71.359 198.64C69.8886 195.811 67.1131 193.817 64.6249 191.92C58.8202 187.487 52.5307 183.711 45.8742 180.662C45.0618 180.289 44.3496 181.481 45.1672 181.856C50.8696 184.472 56.3061 187.62 61.4025 191.256C63.8544 193.008 66.4455 194.813 68.4887 197.034C70.2233 198.92 71.8031 201.805 69.9087 204.136C67.6804 206.878 63.6483 206.368 60.5565 205.909C60.4085 205.874 60.253 205.886 60.1129 205.945C59.9729 206.004 59.8559 206.106 59.7793 206.236C59.7027 206.366 59.6707 206.517 59.6879 206.666C59.7052 206.816 59.7708 206.956 59.875 207.065C63.1061 210.258 66.9432 214.091 66.3813 219.005C66.1682 220.868 65.2734 222.771 63.5951 223.756C61.3136 225.095 58.4603 224.406 56.1624 223.48C53.3727 222.356 50.8023 220.779 47.7472 220.453C47.0889 220.383 46.8982 221.229 47.252 221.634C48.7343 223.331 50.5123 225.538 50.3807 227.917C50.2705 229.907 48.5135 231.098 46.6294 231.211C41.8365 231.497 39.4167 226.568 36.9867 223.336C35.4488 221.29 33.6238 219.411 31.117 218.59C30.2594 218.309 29.8917 219.644 30.7446 219.924H30.7446Z" fill="#00A082"/>
</g>
<defs>
<clipPath id="clip0_8_29">
<rect width="240" height="282" fill="white" transform="translate(0.380798 0.574829)"/>
</clipPath>
</defs>
</svg>
